<svg xmlns="http://www.w3.org/2000/svg" viewBox="0 0 512 512" role="img" aria-labelledby="title desc">
  <title id="title">동네빵집 아이콘</title>
  <desc id="desc">따뜻한 브라운과 크림 색상의 빵집 간판 아이콘</desc>
  <rect width="512" height="512" rx="108" fill="#8b4a24" />
  <rect x="48" y="48" width="416" height="416" rx="92" fill="#fff4df" />
  <path
    d="M120 246c0-88 62-150 136-150s136 62 136 150v94c0 42-34 76-76 76H196c-42 0-76-34-76-76v-94Z"
    fill="#d47a25"
  />
  <path
    d="M142 242c9-70 57-118 114-118s105 48 114 118c-28-18-55-26-84-26-11 0-21 1-30 4-9-3-19-4-30-4-29 0-56 8-84 26Z"
    fill="#edae5a"
  />
  <path d="M120 298h272v54c0 35-28 64-64 64H184c-35 0-64-29-64-64v-54Z" fill="#b96216" />
  <path d="M168 304h176" stroke="#fff4df" stroke-width="20" stroke-linecap="round" opacity="0.9" />
  <path d="M196 254c22 18 48 18 70 0" stroke="#fff4df" stroke-width="18" stroke-linecap="round" fill="none" />
  <path d="M246 254c22 18 48 18 70 0" stroke="#fff4df" stroke-width="18" stroke-linecap="round" fill="none" />
  <path d="M176 374h160" stroke="#6f3a1d" stroke-width="28" stroke-linecap="round" />
  <circle cx="256" cy="380" r="18" fill="#fff4df" />
</svg>
